<svg width="121" height="46" viewBox="0 0 121 46" fill="none" xmlns="http://www.w3.org/2000/svg">
<path d="M7.14144 17L15.3494 0.199999H18.3734L26.5334 17H23.6774L18.0374 5.432C17.8934 5.128 17.7494 4.832 17.6054 4.544C17.4614 4.256 17.3174 3.968 17.1734 3.68C17.0454 3.392 16.9174 3.088 16.7894 2.768C16.6614 2.448 16.5334 2.096 16.4054 1.712L17.1734 1.688C17.0294 2.072 16.8854 2.432 16.7414 2.768C16.6134 3.104 16.4774 3.424 16.3334 3.728C16.1894 4.032 16.0454 4.336 15.9014 4.64C15.7574 4.928 15.6134 5.224 15.4694 5.528L9.87744 17H7.14144ZM10.7174 13.064L11.7494 10.568H21.7094L22.1174 13.064H10.7174ZM42.9652 17.24C41.6212 17.24 40.3572 17.04 39.1732 16.64C38.0052 16.224 36.9732 15.64 36.0772 14.888C35.1972 14.12 34.5092 13.208 34.0132 12.152C33.5172 11.08 33.2692 9.896 33.2692 8.6C33.2692 7.368 33.5252 6.232 34.0372 5.192C34.5652 4.152 35.2772 3.248 36.1732 2.48C37.0692 1.712 38.1012 1.12 39.2692 0.704C40.4372 0.271999 41.6692 0.0559993 42.9652 0.0559993C44.0532 0.0559993 45.0932 0.199999 46.0852 0.487999C47.0772 0.76 47.9732 1.112 48.7732 1.544C49.5892 1.96 50.2372 2.4 50.7172 2.864L49.1812 5.048C48.6052 4.568 47.9892 4.144 47.3332 3.776C46.6772 3.408 45.9652 3.12 45.1972 2.912C44.4452 2.704 43.6212 2.6 42.7252 2.6C41.8772 2.6 41.0452 2.744 40.2292 3.032C39.4292 3.304 38.7012 3.704 38.0452 4.232C37.3892 4.744 36.8692 5.376 36.4852 6.128C36.1012 6.864 35.9092 7.688 35.9092 8.6C35.9092 9.608 36.1092 10.496 36.5092 11.264C36.9092 12.016 37.4532 12.648 38.1412 13.16C38.8292 13.672 39.6052 14.064 40.4692 14.336C41.3332 14.592 42.2292 14.72 43.1572 14.72C44.1172 14.72 44.9732 14.6 45.7252 14.36C46.4772 14.104 47.1492 13.792 47.7412 13.424C48.3332 13.056 48.8692 12.696 49.3492 12.344L50.5972 14.504C50.1492 14.872 49.5332 15.272 48.7492 15.704C47.9812 16.136 47.1012 16.504 46.1092 16.808C45.1332 17.096 44.0852 17.24 42.9652 17.24ZM60.0399 17V0.199999H62.5839L70.2399 9.68H69.3279L76.9839 0.199999H79.5279V17H76.9359V9.872C76.9359 8.544 76.9679 7.296 77.0319 6.128C77.0959 4.96 77.2239 3.768 77.4159 2.552L77.6799 3.536L70.5759 12.176H68.9919L61.8879 3.536L62.1519 2.552C62.3439 3.768 62.4719 4.96 62.5359 6.128C62.5999 7.296 62.6319 8.544 62.6319 9.872V17H60.0399ZM90.1786 17V0.199999H104.123V2.696H92.7706V14.504H104.123V17H90.1786ZM91.5946 9.632V7.136H102.803V9.632H91.5946ZM0.96875 45V27H18.2188V28.875H3.21875V34.875H17.4688V36.75H3.21875V45H0.96875ZM21.2188 27H23.4688V45H21.2188V27ZM27.9688 45V27H30.2188V43.125H44.4688V45H27.9688ZM49.7188 28.5V45H47.4688V27H51.2188L61.707 42.75L72.1953 27H75.7812V45H73.5312V28.7461L62.8438 45H60.5703L49.7188 28.5ZM80.2812 45V27H98.2812V28.875H82.5312V34.875H97.5312V36.75H82.5312V43.125H98.2812V45H80.2812ZM112.625 34.875C113.859 34.875 114.918 34.9258 115.801 35.0273C116.684 35.1289 117.426 35.2812 118.027 35.4844C118.637 35.6797 119.121 35.9258 119.48 36.2227C119.84 36.5195 120.117 36.8594 120.312 37.2422C120.508 37.6172 120.633 38.0391 120.688 38.5078C120.75 38.9766 120.781 39.4844 120.781 40.0312C120.781 40.5781 120.73 41.0938 120.629 41.5781C120.535 42.0547 120.363 42.4922 120.113 42.8906C119.863 43.2891 119.523 43.6445 119.094 43.957C118.664 44.2695 118.117 44.5352 117.453 44.7539C116.789 44.9727 115.988 45.1367 115.051 45.2461C114.121 45.3633 113.031 45.4219 111.781 45.4219H108.781C107.656 45.4219 106.672 45.3789 105.828 45.293C104.984 45.207 104.258 45.0781 103.648 44.9062C103.039 44.7266 102.535 44.5039 102.137 44.2383C101.738 43.9648 101.418 43.6484 101.176 43.2891C100.941 42.9219 100.777 42.5078 100.684 42.0469C100.59 41.5781 100.543 41.0625 100.543 40.5H102.793C102.793 41.2031 102.895 41.7539 103.098 42.1523C103.301 42.5508 103.637 42.8516 104.105 43.0547C104.574 43.25 105.188 43.375 105.945 43.4297C106.711 43.4766 107.656 43.5 108.781 43.5H111.781C113.094 43.5 114.184 43.4375 115.051 43.3125C115.918 43.1875 116.609 42.9883 117.125 42.7148C117.641 42.4414 118.004 42.0859 118.215 41.6484C118.426 41.2031 118.531 40.6641 118.531 40.0312C118.531 39.3984 118.457 38.8711 118.309 38.4492C118.168 38.0273 117.883 37.6914 117.453 37.4414C117.031 37.1914 116.434 37.0156 115.66 36.9141C114.887 36.8047 113.875 36.75 112.625 36.75H109.531C108.156 36.75 106.977 36.6992 105.992 36.5977C105.016 36.4961 104.195 36.3516 103.531 36.1641C102.867 35.9688 102.336 35.7305 101.938 35.4492C101.539 35.1602 101.234 34.832 101.023 34.4648C100.82 34.0977 100.688 33.6914 100.625 33.2461C100.562 32.793 100.531 32.3047 100.531 31.7812C100.531 31.2344 100.578 30.7266 100.672 30.2578C100.773 29.7891 100.957 29.3672 101.223 28.9922C101.488 28.6094 101.852 28.2695 102.312 27.9727C102.773 27.6758 103.363 27.4297 104.082 27.2344C104.809 27.0312 105.68 26.8789 106.695 26.7773C107.711 26.6758 108.906 26.625 110.281 26.625H112.531C113.656 26.625 114.641 26.668 115.484 26.7539C116.328 26.832 117.055 26.9609 117.664 27.1406C118.273 27.3125 118.777 27.5312 119.176 27.7969C119.582 28.0547 119.902 28.3672 120.137 28.7344C120.379 29.0938 120.547 29.5039 120.641 29.9648C120.734 30.4258 120.781 30.9375 120.781 31.5H118.531C118.531 30.7969 118.43 30.2461 118.227 29.8477C118.023 29.4492 117.688 29.1523 117.219 28.957C116.75 28.7539 116.133 28.6289 115.367 28.582C114.602 28.5273 113.656 28.5 112.531 28.5H110.281C108.781 28.5 107.547 28.5547 106.578 28.6641C105.609 28.7656 104.844 28.9414 104.281 29.1914C103.719 29.4414 103.328 29.7773 103.109 30.1992C102.891 30.6211 102.781 31.1484 102.781 31.7812C102.781 32.1719 102.809 32.5195 102.863 32.8242C102.918 33.1289 103.027 33.3984 103.191 33.6328C103.363 33.8594 103.602 34.0508 103.906 34.207C104.211 34.3633 104.613 34.4922 105.113 34.5938C105.613 34.6953 106.223 34.7695 106.941 34.8164C107.668 34.8555 108.531 34.875 109.531 34.875H112.625Z" fill="#FFF2F2"/>
</svg>
